
        <svg xmlns="http://www.w3.org/2000/svg" xmlns:xlink="http://www.w3.org/1999/xlink" version="1.1" width="3200.6688963210704" 
        height="1123.7458193979933" viewBox="0 0 3200.6688963210704 1123.7458193979933">
			
			<g transform="scale(10.033444816053512) translate(10, 10)">
				<defs id="SvgjsDefs4155"><linearGradient id="SvgjsLinearGradient4164"><stop id="SvgjsStop4165" stop-color="#8f5e25" offset="0"></stop><stop id="SvgjsStop4166" stop-color="#fbf4a1" offset="0.5"></stop><stop id="SvgjsStop4167" stop-color="#8f5e25" offset="1"></stop></linearGradient><linearGradient id="SvgjsLinearGradient4168"><stop id="SvgjsStop4169" stop-color="#8f5e25" offset="0"></stop><stop id="SvgjsStop4170" stop-color="#fbf4a1" offset="0.5"></stop><stop id="SvgjsStop4171" stop-color="#8f5e25" offset="1"></stop></linearGradient><linearGradient id="SvgjsLinearGradient4172"><stop id="SvgjsStop4173" stop-color="#8f5e25" offset="0"></stop><stop id="SvgjsStop4174" stop-color="#fbf4a1" offset="0.5"></stop><stop id="SvgjsStop4175" stop-color="#8f5e25" offset="1"></stop></linearGradient><linearGradient id="SvgjsLinearGradient4176"><stop id="SvgjsStop4177" stop-color="#8f5e25" offset="0"></stop><stop id="SvgjsStop4178" stop-color="#fbf4a1" offset="0.5"></stop><stop id="SvgjsStop4179" stop-color="#8f5e25" offset="1"></stop></linearGradient></defs><g id="SvgjsG4156" featureKey="symbolFeature-0" transform="matrix(0.7648588997787731,0,0,0.7648588997787731,-16.60833633748901,7.75722405560368)" fill="url(#SvgjsLinearGradient4164)"><g xmlns="http://www.w3.org/2000/svg"><path d="M77.782,22.203c-0.728-1.629-2.772-2.808-4.345-1.965c1.187-3.511,0.665-6.25-1.719-9.089s-4.235-2.74-4.235-2.74   c1.79,1.359,3.266,3.275,3.618,5.494c-3.837-4.781-9.209-8.311-15.121-9.934S43.648,2.636,37.907,4.787   c-1.511,0.566-2.975,1.259-4.373,2.064c-3.234,1.864-6.111,4.329-8.485,7.208c-1.004,1.218-2.608,2.908-2.987,4.443   c-0.528,2.133-0.333,4.74-0.199,6.914c0.146,2.364,0.722,4.669,0.826,7.023c0.191,4.36,0.209,12.556,0.503,15.966   c-0.002,0.022-0.006,0.046-0.008,0.067c-0.299,4.227-0.54,11.454-0.351,12.74c0.122,0.83,0.338,1.645,0.579,2.449   c2.401,8.014,9.48,21.82,11.267,24.236c0.781,1.056,1.607,2.134,2.44,3.143c2.381,2.885,6.215,4.554,7.826,5.216   c1.085,0.446,2.112,0.634,3.026,0.727c0.001,0.046,0.706,0.1,1.117,0.08c0.082,0.004,0.177,0.004,0.274,0.003c0,0,0,0,0,0h0   c0.097,0.001,0.192,0.001,0.274-0.003c0.411,0.02,1.116-0.034,1.117-0.08c0.914-0.093,1.941-0.282,3.026-0.727   c1.61-0.662,5.445-2.331,7.826-5.216c0.833-1.01,1.659-2.087,2.44-3.143c1.787-2.416,8.866-16.222,11.267-24.236   c0.241-0.804,0.457-1.618,0.579-2.449c0.188-1.286-0.053-8.513-0.351-12.74c-0.007-0.098-0.022-0.206-0.043-0.31   c0.876-6.894,1.697-13.789,2.578-20.684C78.299,25.708,78.511,23.832,77.782,22.203z M62.752,79.989   c-0.008,0.208-0.029,0.416-0.114,0.604c-0.078,0.172-0.205,0.317-0.331,0.458c-1.047,1.18-2.112,2.377-3.437,3.227   c-0.578,0.371-1.286,0.679-1.934,0.453c-0.307-0.107-0.563-0.324-0.81-0.536l-3.609-3.087c-0.2-0.171-0.291-0.43-0.264-0.693   c0.046-0.452,0.049-0.908,0.01-1.361c-0.035-0.394,0.246-0.738,0.631-0.817c0.471-0.097,0.934-0.235,1.422-0.245   c0.116-0.002,0.253-0.016,0.311-0.117c0.115-0.198-0.193-0.365-0.419-0.387c-1.336-0.132-2.616,0.031-3.952-0.066   c-0.241-0.017-0.589-0.022-0.893-0.015c-0.304-0.007-0.652-0.003-0.893,0.015c-1.336,0.097-2.616-0.067-3.952,0.066   c-0.227,0.022-0.535,0.189-0.419,0.387c0.059,0.101,0.195,0.115,0.311,0.117c0.488,0.01,0.951,0.148,1.422,0.245   c0.385,0.079,0.666,0.422,0.631,0.817c-0.04,0.453-0.036,0.909,0.01,1.361c0.027,0.263-0.065,0.522-0.264,0.693l-3.609,3.087   c-0.248,0.212-0.503,0.429-0.81,0.536c-0.648,0.226-1.356-0.082-1.934-0.453c-1.325-0.85-2.39-2.046-3.437-3.227   c-0.125-0.141-0.253-0.285-0.331-0.458c-0.085-0.188-0.106-0.396-0.114-0.604c-0.032-0.808-0.039-1.617-0.058-2.426   c-0.005-0.202,0-0.405,0.021-0.606c-0.002-0.023-0.003-0.047-0.005-0.07c0.136-0.749,0.447-1.485,0.874-2.115   c0.755-1.113,2.049-1.842,3.402-1.947c0.046-0.012,0.731,0.036,1.033,0.059c4.524,0.334,5.892-0.341,7.889-2.37   c0,0,0.001-0.002,0.235-0.312c0.234,0.31,0.235,0.312,0.235,0.312c1.997,2.029,3.365,2.704,7.889,2.37   c0.302-0.022,0.987-0.07,1.033-0.059c1.353,0.105,2.647,0.834,3.402,1.947c0.427,0.63,0.738,1.366,0.874,2.115   c-0.002,0.023-0.003,0.047-0.005,0.07c0.02,0.201,0.026,0.404,0.021,0.606C62.791,78.372,62.783,79.181,62.752,79.989z    M73.427,60.661c-0.189,0.449-0.511,0.826-0.828,1.195c-2.137,2.485-4.273,4.97-6.41,7.455c-0.575,0.668-1.161,1.356-1.469,2.184   c-0.146,0.392-0.232,0.809-0.393,1.193c-0.104,0.278-0.251,0.538-0.411,0.883c-0.079,0.17-0.171,0.333-0.266,0.494   c-0.005-0.031-0.005-0.067-0.011-0.097c-0.192-1.021-0.331-1.356-0.637-2.158c-0.519-1.013-1.303-1.9-2.233-2.577   c-1.213-0.882-2.652-1.417-4.131-1.717c-2.016-0.27-4.256-0.226-6.395-0.341c0,0,0-0.001,0-0.001   c-0.219-0.012-0.443-0.017-0.659-0.033c0.003-0.009-0.144-0.019-0.218-0.013c-0.001,0-0.003,0-0.004,0c-0.001,0-0.003,0-0.004,0   c-0.074-0.006-0.221,0.004-0.218,0.013c-0.216,0.016-0.44,0.021-0.659,0.033c0,0,0,0.001,0,0.001   c-2.139,0.116-4.379,0.072-6.395,0.342c-1.479,0.3-2.918,0.834-4.131,1.717c-0.93,0.677-1.715,1.564-2.233,2.577   c-0.306,0.802-0.445,1.137-0.637,2.158c-0.006,0.03-0.006,0.066-0.011,0.097c-0.095-0.162-0.187-0.325-0.266-0.494   c-0.161-0.345-0.308-0.605-0.412-0.883c-0.161-0.384-0.247-0.801-0.393-1.193c-0.308-0.828-0.895-1.516-1.469-2.184   c-2.137-2.485-4.273-4.97-6.41-7.455c-0.317-0.369-0.639-0.745-0.827-1.195c-0.166-0.395-0.22-0.826-0.273-1.252   c-0.471-3.799-0.943-7.599-1.414-11.398c0.586-7.046,0.816-16.894,3.323-22.872c0.724-1.727,1.903-3.557,3.755-3.829   c3.55-0.522,6.472,1.247,9.816,2.549c5.251,2.044,11.171,2.834,16.54,1.124c2.708-0.862,5.269-1.963,8.105-2.542   c-5.697,0.926-11.324-1.505-16.795-3.346c-5.471-1.841-11.852-3.026-16.732,0.056c6.842-4.76,16.266-4.264,23.914-0.952   c1.817,0.787,3.637,1.552,5.517,2.172c2.184,0.72,1.884,0.505,4.962,1.34c-7.666-4.205-14.681-8.206-23.372-7.249   c4.474-0.69,9.065-1.145,13.509-0.281c4.444,0.864,8.772,3.211,11.14,7.07c0.552,0.9,1.334,1.477,2.355,1.744   c0.683,0.179,1.604-0.01,1.604-0.01c-0.635,0.73-0.653,1.834-0.343,2.75c0.31,0.917,0.895,1.709,1.388,2.541   c3.508,5.92,2.22,13.304,2.76,20.213c-0.451,3.639-0.903,7.279-1.354,10.918C73.647,59.835,73.593,60.267,73.427,60.661z"></path><path d="M71.181,42.057c-1.235-1.103-2.724-1.919-4.318-2.367c-1.99-0.559-4.094-0.542-6.157-0.405   c-2.158,0.143-4.308,0.413-6.435,0.807c-2.543,0.472,0.85,2.427,1.943,2.525c1.144,0.102,2.286-0.191,3.376-0.552   c1.09-0.361,2.165-0.795,3.297-0.988c2.992-0.511,6.018,0.711,8.603,2.301c0.217-0.148,0.263-0.464,0.173-0.71   C71.572,42.423,71.377,42.232,71.181,42.057z"></path><path d="M44.825,40.093c-2.127-0.394-4.277-0.664-6.435-0.807c-2.062-0.137-4.167-0.154-6.157,0.405   c-1.594,0.448-3.083,1.264-4.318,2.367c-0.196,0.175-0.391,0.366-0.482,0.612c-0.091,0.246-0.044,0.562,0.173,0.71   c2.585-1.59,5.611-2.812,8.603-2.301c1.132,0.193,2.207,0.627,3.297,0.988c1.09,0.361,2.232,0.654,3.376,0.552   C43.974,42.521,47.367,40.565,44.825,40.093z"></path></g></g><g id="SvgjsG4157" featureKey="textGroupContainer" transform="matrix(1,0,0,1,298,0)" fill="url(#SvgjsLinearGradient4168)"><rect xmlns="http://www.w3.org/2000/svg" y="0" height="1" width="1" opacity="0"></rect><rect xmlns="http://www.w3.org/2000/svg" y="0" x="-235" width="3" height="92"></rect></g><g id="SvgjsG4158" featureKey="nameFeature-0" transform="matrix(0.8416941715221582,0,0,0.8416941715221582,77.96990126346597,13.23634728926212)" fill="url(#SvgjsLinearGradient4172)"><path d="M3.6 40 l0 -28 l2.8 0 l0 28 l-2.8 0 z M44.852000000000004 11.600000000000001 l0.4 0 l0 28.4 l-2.76 0 l0 -20.84 l-10.72 14.68 l-0.24 0 l-10.72 -14.6 l0 20.76 l-2.76 0 l0 -28.4 l0.36 0 l13.24 17.8 z M58.304 40.2 c-1.16 0 -2 -0.84 -2 -2 c0 -1.08 0.84 -1.96 2 -1.96 c1.08 0 1.96 0.88 1.96 1.96 c0 1.16 -0.88 2 -1.96 2 z M85.916 22.16 c3.8 1.12 6.08 4.36 6.08 8.72 c0 4.76 -2.56 8.96 -10 9.12 l-10.64 0 l0 -28 l11.04 0 c4.92 0 6.24 3.4 6.24 5.64 c0 2.04 -1.28 3.72 -2.72 4.52 z M82.116 14.52 l-7.96 0 l0 7 l7.12 0 c3.24 0 4.64 -1.68 4.64 -3.6 c0 -1.36 -0.76 -3.4 -3.8 -3.4 z M81.676 37.36 c5.24 0 7.48 -2.84 7.48 -6.48 c0 -3.96 -2.12 -7 -7.2 -7 l-7.8 0 l0 13.48 l7.52 0 z M121.248 40 l-2.72 -6.32 l-13.56 0 l-2.72 6.32 l-3 0 l12.32 -28.4 l0.36 0 l12.32 28.4 l-3 0 z M106.08800000000001 31.08 l11.32 0 l-5.68 -13.16 z M153.06 22.04 c0 4.44 -2.28 8.56 -7 9.68 l6.36 8.28 l-3.4 0 l-6.12 -7.96 l-7 0 l0 7.96 l-2.8 0 l0 -28 l10.2 0 c6.6 0 9.76 4.76 9.76 10.04 z M135.9 14.600000000000001 l0 14.84 l7.24 0 c5.04 0 7.16 -3.8 7.16 -7.4 s-2.12 -7.44 -7.16 -7.44 l-7.24 0 z M178.112 22.16 c3.8 1.12 6.08 4.36 6.08 8.72 c0 4.76 -2.56 8.96 -10 9.12 l-10.64 0 l0 -28 l11.04 0 c4.92 0 6.24 3.4 6.24 5.64 c0 2.04 -1.28 3.72 -2.72 4.52 z M174.312 14.52 l-7.96 0 l0 7 l7.12 0 c3.24 0 4.64 -1.68 4.64 -3.6 c0 -1.36 -0.76 -3.4 -3.8 -3.4 z M173.87199999999999 37.36 c5.24 0 7.48 -2.84 7.48 -6.48 c0 -3.96 -2.12 -7 -7.2 -7 l-7.8 0 l0 13.48 l7.52 0 z M211.00400000000002 37.36 l0.2 2.64 l-16.96 0 l0 -28 l16.16 0 l0.2 2.64 l-13.56 0 l0 7.84 l9.48 0 l0 2.64 l-9.48 0 l0 12.24 l13.96 0 z M241.216 22.04 c0 4.44 -2.28 8.56 -7 9.68 l6.36 8.28 l-3.4 0 l-6.12 -7.96 l-7 0 l0 7.96 l-2.8 0 l0 -28 l10.2 0 c6.6 0 9.76 4.76 9.76 10.04 z M224.056 14.600000000000001 l0 14.84 l7.24 0 c5.04 0 7.16 -3.8 7.16 -7.4 s-2.12 -7.44 -7.16 -7.44 l-7.24 0 z"></path></g><g id="SvgjsG4159" featureKey="sloganFeature-0" transform="matrix(0.8085285600012707,0,0,0.8085285600012707,80.1836708807858,53.06458491371154)" fill="url(#SvgjsLinearGradient4176)"><path d="M2.84 19.84 c0.06 0.02 0.24 0.02 0.42 0.02 c0.4 0 0.52 -1.44 0.56 -1.74 c0.02 -0.24 0.08 -0.26 0.28 -0.3 c1 -0.12 1.5 -0.04 2.5 -0.02 c0.22 0 0.34 0.1 0.4 0.28 l0.14 0.46 c0.12 0.34 0.22 0.76 0.34 1.1 c0.08 0.24 0.1 0.22 0.34 0.22 c0.32 0 1.48 0 1.82 -0.02 c0.46 0 0.14 -0.94 0.08 -1.1 c-0.18 -0.56 -0.22 -1.14 -0.4 -1.7 c-0.08 -0.24 -2.36 -11.06 -2.46 -11.66 c-0.14 -0.36 -0.02 -0.38 -0.34 -0.38 c-0.68 0 -1.4 0.04 -2.1 0 c-0.28 0 -0.26 0.08 -0.3 0.38 c-0.04 0.28 -0.76 3.46 -1.04 4.78 c-0.36 1.66 -0.68 3.26 -1.08 4.9 c-0.14 0.58 -1.1 4.76 -0.98 4.78 c0.06 0.04 0.16 0.02 0.24 0.02 c0.5 0 0.96 0 1.58 -0.02 z M5.46 15.3 l-0.42 0 c-0.56 0 -0.58 0 -0.44 -0.58 c0.1 -0.44 0.64 -2.82 0.76 -3.4 c0.02 -0.04 0.06 -0.08 0.08 -0.08 c0.04 0 0.08 0.04 0.1 0.06 c0.08 0.24 0.16 0.84 0.24 1.08 c0.18 0.76 0.3 1.4 0.48 2.22 c0.18 0.72 0.1 0.72 -0.26 0.72 c-0.18 0 -0.36 -0.02 -0.54 -0.02 z M19.78 7.359999999999999 c0.02 -0.66 0 -1.2 0 -1.84 c0 -0.74 -1.34 -0.66 -1.82 -0.64 c-2.14 0.14 -4.18 1.5 -5.16 3.36 c-0.28 0.54 -0.48 1.1 -0.62 1.68 c-0.34 1.36 -0.36 2.8 -0.2 4.18 c0.14 1.3 0.48 2.6 1.28 3.64 c1.38 1.82 3.92 2.46 6.1 2.12 c0.1 -0.02 0.2 -0.04 0.28 -0.1 c0.06 -0.04 0.12 -0.12 0.12 -0.2 l0.06 -1.14 c0.02 -0.36 0 -0.34 0 -0.7 c0 -0.48 -1 -0.12 -1.62 -0.12 c-0.6 0 -1.24 -0.02 -1.78 -0.3 c-0.96 -0.54 -1.5 -1.62 -1.8 -2.64 c-0.34 -1.1 -0.42 -2.28 -0.22 -3.4 c0.24 -1.46 0.94 -3.14 2.48 -3.64 c0.88 -0.3 1.82 -0.2 2.7 -0.1 c0.12 0.02 0.2 -0.06 0.2 -0.16 z M23.66 19.84 c0.06 0.02 0.24 0.02 0.42 0.02 c0.4 0 0.52 -1.44 0.56 -1.74 c0.02 -0.24 0.08 -0.26 0.28 -0.3 c1 -0.12 1.5 -0.04 2.5 -0.02 c0.22 0 0.34 0.1 0.4 0.28 l0.14 0.46 c0.12 0.34 0.22 0.76 0.34 1.1 c0.08 0.24 0.1 0.22 0.34 0.22 c0.32 0 1.48 0 1.82 -0.02 c0.46 0 0.14 -0.94 0.08 -1.1 c-0.18 -0.56 -0.22 -1.14 -0.4 -1.7 c-0.08 -0.24 -2.36 -11.06 -2.46 -11.66 c-0.14 -0.36 -0.02 -0.38 -0.34 -0.38 c-0.68 0 -1.4 0.04 -2.1 0 c-0.28 0 -0.26 0.08 -0.3 0.38 c-0.04 0.28 -0.76 3.46 -1.04 4.78 c-0.36 1.66 -0.68 3.26 -1.08 4.9 c-0.14 0.58 -1.1 4.76 -0.98 4.78 c0.06 0.04 0.16 0.02 0.24 0.02 c0.5 0 0.96 0 1.58 -0.02 z M26.28 15.3 l-0.42 0 c-0.56 0 -0.58 0 -0.44 -0.58 c0.1 -0.44 0.64 -2.82 0.76 -3.4 c0.02 -0.04 0.06 -0.08 0.08 -0.08 c0.04 0 0.08 0.04 0.1 0.06 c0.08 0.24 0.16 0.84 0.24 1.08 c0.18 0.76 0.3 1.4 0.48 2.22 c0.18 0.72 0.1 0.72 -0.26 0.72 c-0.18 0 -0.36 -0.02 -0.54 -0.02 z M41.120000000000005 16.32 c0.12 -0.26 0.22 -0.52 0.32 -0.78 c0.22 -0.64 0.26 -1.3 0.32 -1.96 c0.12 -1.4 0.08 -2.82 -0.28 -4.18 c-0.44 -1.74 -1.56 -3.34 -3.24 -4.08 c-0.76 -0.34 -1.62 -0.38 -2.44 -0.36 c-0.86 0 -1.74 -0.04 -2.6 0.04 c-0.24 0.02 -0.36 0.14 -0.4 0.36 c-0.04 0.24 -0.08 0.48 -0.08 0.7 c0.04 1.22 0 4.84 0.04 5.44 c0.02 0.54 -0.04 1.2 -0.04 1.74 c0.02 1.34 0 2.7 0 4.04 c0 0.56 -0.02 1.1 -0.02 1.66 c0 0.6 -0.22 0.86 1.42 0.86 c1.46 0 2.98 -0.12 4.36 -0.64 c1.28 -0.46 2.08 -1.64 2.64 -2.84 z M35.300000000000004 14.24 l0 -2.4 c0 -1.52 0.04 -2.5 -0.02 -3.78 l0 -0.24 c0.02 -0.42 0.08 -0.44 0.52 -0.44 c0.58 -0.02 1 0.12 1.5 0.32 s0.78 0.64 1.04 1.06 c0.5 0.82 0.7 1.72 0.74 2.66 c0.02 0.54 0.04 1.08 0.04 1.62 c0 2.56 -1.5 4.34 -2.82 4.34 c-0.88 0 -1.02 0.06 -1.02 -0.52 c0 -0.6 0.04 -1.2 0.04 -1.8 c-0.02 -0.26 -0.02 -0.54 -0.02 -0.82 z M43.84000000000001 15.9 l-0.02 0 c0 0.5 -0.02 1.02 0 1.54 c0.02 0.64 0.06 1.28 0.1 1.92 c0 0.22 0.06 0.28 0.26 0.32 c0.42 0.1 0.82 0.12 1.24 0.12 c1.08 -0.04 2.16 0.04 3.24 0 c0.44 -0.02 0.64 0.02 1.08 -0.06 c0.4 -0.08 0.54 -0.3 0.54 -0.9 c-0.04 -0.38 -0.02 -0.54 -0.02 -1 c0 -0.66 -0.46 -0.88 -0.86 -0.86 c-0.28 0.02 -1.62 -0.02 -2.16 -0.02 c-0.9 0.02 -0.76 0.14 -0.76 -0.8 c0 -0.76 0.02 -1.74 0.02 -2.52 c0 -0.42 0.04 -0.56 0.44 -0.56 l2.5 0 c0.4 0.06 0.68 -0.22 0.68 -0.64 s0.04 -0.44 0.04 -0.86 l-0.06 -0.6 c-0.04 -0.34 -0.16 -0.46 -0.5 -0.46 c-0.22 0 -0.44 0.02 -0.66 0.04 c-0.86 0.06 -1.26 -0.06 -2.1 0 c-0.28 0 -0.32 -0.04 -0.34 -0.3 c-0.08 -0.78 0 -1.64 0.08 -2.42 c0.02 -0.32 0.1 -0.38 0.4 -0.4 l2.82 -0.02 c0.38 -0.04 0.5 -0.02 0.48 -0.4 c-0.04 -0.58 0.02 -1.18 -0.04 -1.76 c-0.04 -0.32 -0.14 -0.38 -0.5 -0.38 c-0.6 0.02 -0.74 0.02 -1.34 0.06 c-0.6 0.02 -3 0.02 -3.58 0.02 c-0.84 0 -0.9 -0.06 -0.92 0.96 c-0.04 0.8 -0.02 1.62 -0.02 2.44 c0 1.4 -0.08 6.42 -0.04 7.54 z M55.18000000000001 5.02 c-0.2 0 -0.4 0.02 -0.6 0.02 c-0.3 0 -0.66 -0.06 -0.72 0.34 c-0.2 1.7 -0.38 3.58 -0.58 5.28 c-0.34 2.8 -0.66 5.68 -0.98 8.48 c-0.04 0.38 -0.08 0.74 0.34 0.82 c0.64 0.04 1.12 0.04 1.66 0.02 c0.2 0.02 0.42 0.04 0.48 -0.2 c0.04 -0.1 0.04 -0.2 0.04 -0.3 c0.04 -0.46 0.64 -6.22 0.88 -6.22 c0.38 0 1.38 4.68 1.86 6.4 c0.06 0.24 0.18 0.34 0.42 0.32 c0.5 -0.04 0.98 0 1.48 0 s0.4 -0.32 0.5 -0.74 c0.12 -0.46 1.28 -6 1.56 -6 c0.32 0 0.98 6.42 1.04 6.56 c0.12 0.28 0.46 0.16 0.7 0.16 c0.36 0 0.7 0.04 1.16 0 c0.34 -0.04 0.68 0.08 0.7 -0.36 c0 -0.1 -0.04 -0.2 -0.06 -0.3 c-0.08 -0.5 -0.18 -1.1 -0.28 -1.6 c-0.14 -1.04 -0.34 -2.06 -0.48 -3.1 c-0.2 -1.64 -0.4 -3.28 -0.58 -4.92 c-0.14 -1.4 -0.34 -2.98 -0.46 -4.38 c-0.04 -0.46 -0.56 -0.3 -0.88 -0.3 l-1.38 0 c-0.22 0 -0.32 0.42 -0.36 0.64 c-0.12 0.56 -1.5 7.78 -1.96 7.78 s-1.94 -6.6 -2.2 -8.04 c-0.06 -0.32 -0.28 -0.42 -0.58 -0.42 z M70.74000000000001 13.879999999999999 l0.02 5.84 c0 0.22 0.2 0.3 0.36 0.3 l1.84 0 c0.34 0 0.34 -0.3 0.34 -0.44 c0 -1.88 0 -3.9 0.08 -5.8 c0 -0.32 0.04 -0.62 0.2 -0.92 c0.18 -0.3 2.84 -6.24 3.14 -7.22 c0.04 -0.14 0.12 -0.38 -0.02 -0.5 c-0.24 -0.22 -1.2 -0.12 -1.78 -0.12 c-0.36 0 -0.58 0.14 -0.74 0.5 c-0.68 1.58 -1.38 3.14 -2.08 4.72 c-0.06 0.14 -0.14 0.14 -0.24 0 c-0.22 -0.36 -1.64 -3.88 -1.86 -4.66 c-0.04 -0.1 -0.06 -0.2 -0.12 -0.28 c-0.28 -0.32 -0.74 -0.28 -1.12 -0.28 c-0.5 0 -0.86 0.02 -1.34 0.02 c-0.32 0 -0.34 0.3 -0.28 0.56 c0.02 0.1 0.08 0.2 0.12 0.28 c0.76 1.44 2.9 6.2 3.28 7.1 c0.2 0.42 0.18 0.44 0.2 0.9 z M90.74 7.48 c-0.04 -0.26 -0.12 -0.52 -0.22 -0.76 c-0.46 -1.06 -1.52 -1.8 -2.68 -1.82 c-1.12 -0.04 -2.4 0.54 -2.84 1.64 c-0.62 1.5 0.32 3.14 0.86 4.5 c0.08 0.22 0.06 0.38 -0.06 0.56 c-0.1 0.12 -0.26 0.26 -0.36 0.38 c-0.72 0.92 -1.4 1.94 -1.6 3.12 c-0.2 1.14 0.08 2.4 0.78 3.34 c1.36 1.84 4.1 2.26 6.06 1.18 c0.12 -0.08 0.18 0.32 0.52 0.32 l1.92 0 c0.3 0 0.06 -0.3 -0.02 -0.4 c-0.2 -0.28 -0.34 -0.62 -0.52 -0.9 c-0.1 -0.16 -0.32 -0.42 -0.26 -0.6 c0.14 -0.44 0.26 -0.54 0.32 -0.84 c0.16 -0.54 1.5 -3.4 0.46 -3.4 c-0.42 0 -0.88 -0.02 -1.56 -0.02 c-0.34 0 -0.46 1.6 -0.66 1.6 c-0.22 0 -0.96 -1.8 -1.42 -2.54 c-0.2 -0.32 -0.44 -1.14 -0.22 -1.52 c0.28 -0.5 0.68 -0.92 0.94 -1.44 c0.28 -0.56 0.5 -1.16 0.56 -1.78 c0.02 -0.22 0.02 -0.42 0 -0.62 z M86.94 7.6 c0.02 -0.24 0.22 -0.68 0.86 -0.68 c0.6 0 0.88 0.32 0.9 0.68 c0.02 0.48 -0.26 1.32 -0.6 1.7 c-0.12 0.14 -0.52 0.26 -0.68 0 c-0.24 -0.38 -0.5 -1.56 -0.48 -1.7 z M86.18 15.42 c-0.02 -0.48 0.22 -0.98 0.48 -1.36 l0.58 -0.64 c0.04 -0.04 0.1 -0.02 0.12 0.02 c0.68 1.14 1.36 2.46 1.88 3.42 c0.16 0.3 0.02 0.46 -0.04 0.5 c-0.78 0.78 -2.3 0.18 -2.74 -0.7 c-0.16 -0.3 -0.28 -0.92 -0.28 -1.24 z M100.52 6.539999999999999 c0 0.96 -0.04 11.28 0 12.2 c0.02 0.22 0.02 0.44 0.02 0.66 c0 0.16 0.1 0.26 0.24 0.32 c0.12 0.04 0.28 0.08 0.4 0.08 c0.58 -0.06 1.2 0 1.8 -0.02 c1.04 0.08 1.98 -0.16 2.88 -0.64 c0.84 -0.48 1.3 -1.34 1.62 -2.24 c0.26 -0.76 0.22 -1.66 0.08 -2.44 c-0.12 -0.7 -0.44 -1.38 -0.86 -1.94 c-0.06 -0.08 -0.92 -0.62 -0.88 -0.66 c0.52 -0.74 1.26 -1.36 1.36 -2.28 c0.08 -0.8 -0.1 -1.62 -0.38 -2.36 c-0.18 -0.48 -0.42 -0.94 -0.8 -1.3 c-0.64 -0.6 -1.6 -0.86 -2.44 -0.94 c-0.86 -0.08 -1.66 -0.02 -2.52 -0.06 c-0.3 0 -0.44 0.12 -0.44 0.44 c0 0.42 -0.08 0.76 -0.08 1.18 z M102.98 10.18 c-0.02 -0.22 0 -1.98 -0.04 -2.64 c-0.02 -0.24 0.12 -0.36 0.38 -0.3 c0.2 0.04 0.36 0.06 0.52 0.18 c0.5 0.38 0.88 0.84 0.9 1.48 c0 0.32 0 0.64 -0.12 0.94 c-0.14 0.36 -0.34 0.64 -0.7 0.82 c-0.24 0.12 -0.46 0.26 -0.7 0.36 c-0.12 0.04 -0.24 -0.02 -0.26 -0.14 c0 -0.24 0.02 -0.7 0.02 -0.7 z M104.98 15.48 c0 0.1 -0.02 0.28 -0.02 0.46 c-0.02 0.6 -0.8 1.36 -1.7 1.38 c-0.06 0 -0.16 -0.06 -0.18 -0.12 c-0.04 -0.12 -0.08 -0.26 -0.08 -0.4 c-0.02 -0.62 0 -1.22 0 -1.88 c0.06 -0.42 0.02 -0.86 0.02 -1.3 c0.02 -0.34 0.1 -0.4 0.42 -0.46 c0.48 -0.06 0.92 0.14 1.14 0.52 c0.26 0.46 0.36 0.96 0.4 1.48 l0 0.32 z M111.52000000000001 19.84 c0.06 0.02 0.24 0.02 0.42 0.02 c0.4 0 0.52 -1.44 0.56 -1.74 c0.02 -0.24 0.08 -0.26 0.28 -0.3 c1 -0.12 1.5 -0.04 2.5 -0.02 c0.22 0 0.34 0.1 0.4 0.28 l0.14 0.46 c0.12 0.34 0.22 0.76 0.34 1.1 c0.08 0.24 0.1 0.22 0.34 0.22 c0.32 0 1.48 0 1.82 -0.02 c0.46 0 0.14 -0.94 0.08 -1.1 c-0.18 -0.56 -0.22 -1.14 -0.4 -1.7 c-0.08 -0.24 -2.36 -11.06 -2.46 -11.66 c-0.14 -0.36 -0.02 -0.38 -0.34 -0.38 c-0.68 0 -1.4 0.04 -2.1 0 c-0.28 0 -0.26 0.08 -0.3 0.38 c-0.04 0.28 -0.76 3.46 -1.04 4.78 c-0.36 1.66 -0.68 3.26 -1.08 4.9 c-0.14 0.58 -1.1 4.76 -0.98 4.78 c0.06 0.04 0.16 0.02 0.24 0.02 c0.5 0 0.96 0 1.58 -0.02 z M114.14 15.3 l-0.42 0 c-0.56 0 -0.58 0 -0.44 -0.58 c0.1 -0.44 0.64 -2.82 0.76 -3.4 c0.02 -0.04 0.06 -0.08 0.08 -0.08 c0.04 0 0.08 0.04 0.1 0.06 c0.08 0.24 0.16 0.84 0.24 1.08 c0.18 0.76 0.3 1.4 0.48 2.22 c0.18 0.72 0.1 0.72 -0.26 0.72 c-0.18 0 -0.36 -0.02 -0.54 -0.02 z M123.04 18.5 c0 -0.52 0 -3.8 0.02 -4.06 c0.02 -0.06 0.06 -0.18 0.14 -0.18 s0.12 0.04 0.14 0.1 c0.8 1.56 1.5 3.12 2.22 4.64 c0.1 0.22 0.32 0.86 0.38 0.92 c0.08 0.12 0.22 0.08 0.34 0.08 l2.2 0.02 c0.26 0 0.32 -0.16 0.26 -0.38 c-0.16 -0.6 -1.3 -2.72 -1.56 -3.24 c-0.18 -0.4 -1.38 -2.72 -1.42 -2.9 c-0.04 -0.08 0.26 -0.22 0.3 -0.28 c0.96 -0.86 1.82 -1.74 2 -3.08 c0.2 -1.32 -0.1 -2.76 -0.96 -3.82 c-0.66 -0.78 -1.52 -1.24 -2.54 -1.3 c-0.62 -0.04 -1.22 0.02 -1.84 0 c-0.54 -0.02 -0.92 -0.02 -1.6 -0.02 c-0.32 0 -0.52 0.18 -0.54 0.52 l0 0.24 c-0.04 1.54 0 3.08 0.02 4.6 c0 2.32 -0.04 8.44 -0.04 9.32 c0 0.26 0.04 0.32 0.28 0.32 c0.14 0 0.3 0.02 0.44 0.02 c0.56 0 0.9 -0.02 1.48 -0.02 c0.44 0 0.28 -0.72 0.28 -1.5 z M123.04 10.7 l0.02 -2.02 c0.02 -0.3 -0.08 -0.9 0.2 -1.12 c0.38 -0.28 1.16 0 1.5 0.24 c1 0.68 0.92 2.36 0.38 3.3 c-0.26 0.44 -0.7 0.7 -1.2 0.84 c-0.3 0.08 -0.86 0.18 -0.88 -0.3 c0 -0.32 -0.02 -0.94 -0.02 -0.94 z M130.78 6.539999999999999 c0 0.96 -0.04 11.28 0 12.2 c0.02 0.22 0.02 0.44 0.02 0.66 c0 0.16 0.1 0.26 0.24 0.32 c0.12 0.04 0.28 0.08 0.4 0.08 c0.58 -0.06 1.2 0 1.8 -0.02 c1.04 0.08 1.98 -0.16 2.88 -0.64 c0.84 -0.48 1.3 -1.34 1.62 -2.24 c0.26 -0.76 0.22 -1.66 0.08 -2.44 c-0.12 -0.7 -0.44 -1.38 -0.86 -1.94 c-0.06 -0.08 -0.92 -0.62 -0.88 -0.66 c0.52 -0.74 1.26 -1.36 1.36 -2.28 c0.08 -0.8 -0.1 -1.62 -0.38 -2.36 c-0.18 -0.48 -0.42 -0.94 -0.8 -1.3 c-0.64 -0.6 -1.6 -0.86 -2.44 -0.94 c-0.86 -0.08 -1.66 -0.02 -2.52 -0.06 c-0.3 0 -0.44 0.12 -0.44 0.44 c0 0.42 -0.08 0.76 -0.08 1.18 z M133.23999999999998 10.18 c-0.02 -0.22 0 -1.98 -0.04 -2.64 c-0.02 -0.24 0.12 -0.36 0.38 -0.3 c0.2 0.04 0.36 0.06 0.52 0.18 c0.5 0.38 0.88 0.84 0.9 1.48 c0 0.32 0 0.64 -0.12 0.94 c-0.14 0.36 -0.34 0.64 -0.7 0.82 c-0.24 0.12 -0.46 0.26 -0.7 0.36 c-0.12 0.04 -0.24 -0.02 -0.26 -0.14 c0 -0.24 0.02 -0.7 0.02 -0.7 z M135.23999999999998 15.48 c0 0.1 -0.02 0.28 -0.02 0.46 c-0.02 0.6 -0.8 1.36 -1.7 1.38 c-0.06 0 -0.16 -0.06 -0.18 -0.12 c-0.04 -0.12 -0.08 -0.26 -0.08 -0.4 c-0.02 -0.62 0 -1.22 0 -1.88 c0.06 -0.42 0.02 -0.86 0.02 -1.3 c0.02 -0.34 0.1 -0.4 0.42 -0.46 c0.48 -0.06 0.92 0.14 1.14 0.52 c0.26 0.46 0.36 0.96 0.4 1.48 l0 0.32 z M139.96 15.9 l-0.02 0 c0 0.5 -0.02 1.02 0 1.54 c0.02 0.64 0.06 1.28 0.1 1.92 c0 0.22 0.06 0.28 0.26 0.32 c0.42 0.1 0.82 0.12 1.24 0.12 c1.08 -0.04 2.16 0.04 3.24 0 c0.44 -0.02 0.64 0.02 1.08 -0.06 c0.4 -0.08 0.54 -0.3 0.54 -0.9 c-0.04 -0.38 -0.02 -0.54 -0.02 -1 c0 -0.66 -0.46 -0.88 -0.86 -0.86 c-0.28 0.02 -1.62 -0.02 -2.16 -0.02 c-0.9 0.02 -0.76 0.14 -0.76 -0.8 c0 -0.76 0.02 -1.74 0.02 -2.52 c0 -0.42 0.04 -0.56 0.44 -0.56 l2.5 0 c0.4 0.06 0.68 -0.22 0.68 -0.64 s0.04 -0.44 0.04 -0.86 l-0.06 -0.6 c-0.04 -0.34 -0.16 -0.46 -0.5 -0.46 c-0.22 0 -0.44 0.02 -0.66 0.04 c-0.86 0.06 -1.26 -0.06 -2.1 0 c-0.28 0 -0.32 -0.04 -0.34 -0.3 c-0.08 -0.78 0 -1.64 0.08 -2.42 c0.02 -0.32 0.1 -0.38 0.4 -0.4 l2.82 -0.02 c0.38 -0.04 0.5 -0.02 0.48 -0.4 c-0.04 -0.58 0.02 -1.18 -0.04 -1.76 c-0.04 -0.32 -0.14 -0.38 -0.5 -0.38 c-0.6 0.02 -0.74 0.02 -1.34 0.06 c-0.6 0.02 -3 0.02 -3.58 0.02 c-0.84 0 -0.9 -0.06 -0.92 0.96 c-0.04 0.8 -0.02 1.62 -0.02 2.44 c0 1.4 -0.08 6.42 -0.04 7.54 z M150.88 18.5 c0 -0.52 0 -3.8 0.02 -4.06 c0.02 -0.06 0.06 -0.18 0.14 -0.18 s0.12 0.04 0.14 0.1 c0.8 1.56 1.5 3.12 2.22 4.64 c0.1 0.22 0.32 0.86 0.38 0.92 c0.08 0.12 0.22 0.08 0.34 0.08 l2.2 0.02 c0.26 0 0.32 -0.16 0.26 -0.38 c-0.16 -0.6 -1.3 -2.72 -1.56 -3.24 c-0.18 -0.4 -1.38 -2.72 -1.42 -2.9 c-0.04 -0.08 0.26 -0.22 0.3 -0.28 c0.96 -0.86 1.82 -1.74 2 -3.08 c0.2 -1.32 -0.1 -2.76 -0.96 -3.82 c-0.66 -0.78 -1.52 -1.24 -2.54 -1.3 c-0.62 -0.04 -1.22 0.02 -1.84 0 c-0.54 -0.02 -0.92 -0.02 -1.6 -0.02 c-0.32 0 -0.52 0.18 -0.54 0.52 l0 0.24 c-0.04 1.54 0 3.08 0.02 4.6 c0 2.32 -0.04 8.44 -0.04 9.32 c0 0.26 0.04 0.32 0.28 0.32 c0.14 0 0.3 0.02 0.44 0.02 c0.56 0 0.9 -0.02 1.48 -0.02 c0.44 0 0.28 -0.72 0.28 -1.5 z M150.88 10.7 l0.02 -2.02 c0.02 -0.3 -0.08 -0.9 0.2 -1.12 c0.38 -0.28 1.16 0 1.5 0.24 c1 0.68 0.92 2.36 0.38 3.3 c-0.26 0.44 -0.7 0.7 -1.2 0.84 c-0.3 0.08 -0.86 0.18 -0.88 -0.3 c0 -0.32 -0.02 -0.94 -0.02 -0.94 z M162.68 4.9 c-0.38 0.02 -0.76 0.08 -1.14 0.2 c-0.82 0.28 -1.56 0.84 -2.06 1.56 c-0.44 0.66 -0.62 1.44 -0.68 2.22 c-0.04 0.6 0.02 1.22 0.3 1.76 c0.3 0.58 0.82 1.08 1.26 1.56 c0.4 0.42 0.8 0.84 1.24 1.22 c0.4 0.38 0.86 0.68 1.26 1.08 c0.58 0.58 0.8 1.9 0.38 2.62 c-0.5 0.8 -1.68 0.92 -2.46 0.66 c-0.4 -0.14 -0.76 -0.44 -1.1 -0.68 c-0.2 -0.14 -0.44 -0.2 -0.58 0.04 c-0.08 0.12 -0.12 0.26 -0.16 0.38 c-0.14 0.5 -0.32 0.96 -0.34 1.5 c-0.02 0.62 1.16 0.8 1.6 0.9 c1.96 0.46 4.32 0.1 5.34 -1.84 c0.2 -0.4 0.34 -0.82 0.42 -1.26 c0.02 -0.16 0.04 -0.3 0.04 -0.46 c0.08 -1.28 -0.44 -2.36 -1.22 -3.32 c-0.84 -1.04 -1.9 -1.76 -2.88 -2.66 c-0.6 -0.56 -0.82 -1.44 -0.64 -2.24 c0.18 -0.86 1.16 -1.08 1.9 -0.86 c0.22 0.06 0.4 0.16 0.6 0.28 c0.12 0.06 0.24 0.14 0.4 0.14 c0.28 0.02 0.32 -0.2 0.38 -0.42 c0.14 -0.5 0.38 -0.9 0.48 -1.38 c0.1 -0.54 -0.34 -0.64 -0.78 -0.78 c-0.52 -0.14 -1.02 -0.24 -1.56 -0.22 z M174 14.08 c0 0.9 -0.02 2.68 -0.04 2.68 l0 2.72 c0 0.12 -0.02 0.32 0.04 0.44 c0.06 0.14 0.24 0.1 0.36 0.08 c0.58 -0.06 1.16 0.02 1.74 0 c0.64 -0.02 0.44 -1 0.42 -1.4 c-0.08 -0.88 0.02 -7.58 0.02 -9.98 c0 -1.08 -0.04 -3.3 -0.1 -3.4 c-0.1 -0.18 -0.36 -0.22 -0.56 -0.24 c-0.44 -0.08 -0.66 0.04 -1.32 0.04 s-0.7 0.2 -0.7 0.9 l0 0.6 c-0.02 0.48 0.06 3.84 0.06 4.38 c0 0.26 -0.02 0.28 -0.28 0.28 c-0.66 -0.02 -1.58 0.06 -2.26 0 c-0.98 -0.08 -0.76 0 -0.82 -0.9 l0 -0.12 c0 -1.28 0.16 -4.6 0.1 -4.8 c-0.1 -0.3 -0.22 -0.36 -0.48 -0.34 c-0.6 0.04 -1.22 -0.06 -1.82 -0.02 c-0.2 0.02 -0.26 0.08 -0.32 0.28 c-0.02 0.1 -0.04 0.2 -0.04 0.3 c0 0.62 0.04 1.46 0.06 2.08 l-0.06 11.86 c0 0.52 0.46 0.46 1.48 0.46 c0.94 0 1.18 0.22 1.18 -0.9 c0 -0.9 -0.06 -2.04 -0.04 -2.94 c0.02 -0.7 0 -1.38 0 -2.08 c0.02 -0.26 0.08 -0.34 0.32 -0.34 c0.88 -0.02 1.84 0 2.72 0 c0.28 0 0.34 0.04 0.34 0.36 z M189.1 8.68 c0.42 1.24 0.52 2.58 0.52 3.9 c0 1.1 -0.2 2.16 -0.48 3.22 c-0.36 1.26 -0.96 2.4 -2.04 3.14 c-0.8 0.58 -1.64 0.96 -2.62 1.06 c-0.14 0 -0.26 0.02 -0.4 0.02 c-0.12 0 -0.24 -0.02 -0.38 -0.02 c-0.98 -0.1 -1.82 -0.48 -2.64 -1.06 c-1.06 -0.74 -1.68 -1.88 -2.02 -3.14 c-0.3 -1.06 -0.48 -2.12 -0.48 -3.22 c0 -1.32 0.1 -2.66 0.52 -3.9 c0.74 -2.14 2.78 -3.66 5 -3.7 c2.22 0.04 4.26 1.56 5.02 3.7 z M187.16 14.04 c0.2 -1.22 0.12 -2.46 -0.12 -3.68 c-0.24 -1.1 -0.72 -2.18 -1.64 -2.84 c-0.16 -0.12 -0.34 -0.22 -0.52 -0.28 c-0.26 -0.12 -0.54 -0.16 -0.8 -0.16 s-0.52 0.04 -0.78 0.16 c-0.2 0.06 -0.36 0.16 -0.52 0.28 c-0.94 0.66 -1.42 1.74 -1.64 2.84 c-0.24 1.22 -0.32 2.46 -0.12 3.68 c0.2 1.1 0.6 2.58 1.64 3.14 c0.44 0.24 0.92 0.4 1.42 0.42 c0.5 -0.02 1 -0.18 1.44 -0.42 c1.04 -0.56 1.44 -2.04 1.64 -3.14 z M191.64000000000001 7.619999999999999 c0.02 1.18 0.02 11.2 0.02 12.02 c0 0.3 0.04 0.36 0.34 0.36 c0.68 0 0.68 0.02 1.36 0 c0.14 0 0.38 0 0.5 -0.06 c0.14 -0.06 0.06 -4.78 0.06 -5.04 c0 -0.28 0.56 -0.22 0.72 -0.22 c3.34 0 4.26 -2.4 4.26 -4.44 c0 -1.84 -0.36 -5.24 -4.52 -5.24 c-0.72 0 -1.46 0.02 -2.16 0.02 c-0.16 0 -0.36 -0.02 -0.5 0.08 c-0.16 0.12 -0.1 1.9 -0.08 2.52 z M193.94 11.74 c0 -0.44 -0.02 -3.06 0 -3.86 c0 -0.12 -0.02 -0.26 0 -0.4 c0.06 -0.22 0.32 -0.22 0.52 -0.2 c1.16 0.08 1.82 1.1 1.92 2.18 c0.08 0.78 -0.02 1.94 -0.58 2.56 c-0.4 0.42 -0.92 0.68 -1.6 0.68 c-0.14 0 -0.28 -0.16 -0.28 -0.3 c0 -0.22 0 -0.44 0.02 -0.66 z"></path></g>
			</g>
		</svg>
	